<svg width="64" height="64" viewBox="0 0 64 64" fill="none" xmlns="http://www.w3.org/2000/svg">
<g clip-path="url(#clip0_1_2)">
<path d="M26.7875 12.608L34.6595 12.704C43.0435 13.664 48.3875 16.832 50.6915 22.208C50.9475 22.784 51.1395 23.36 51.2675 23.936L51.5555 24.992L51.6515 36.512C51.6515 44 51.7155 47.872 51.8435 48.128C52.3555 48.64 53.7315 48.96 55.9715 49.088C56.9955 49.088 57.7315 49.216 58.1795 49.472C58.5635 49.856 58.7555 50.88 58.7555 52.544C58.7555 54.208 58.5315 55.232 58.0835 55.616C57.4435 55.872 55.3955 56 51.9395 56C48.0995 55.936 45.5715 55.712 44.3555 55.328C42.3715 54.688 41.0915 53.696 40.5155 52.352C40.2595 51.84 40.1315 51.552 40.1315 51.488C40.1315 51.424 39.8435 51.584 39.2675 51.968C36.4515 54.208 32.6755 55.68 27.9395 56.384C25.4435 56.64 23.4915 56.672 22.0835 56.48C16.3235 55.84 12.2595 53.472 9.8915 49.376C9.3155 48.416 8.8995 47.424 8.6435 46.4C8.4515 45.696 8.3555 44.8 8.3555 43.712C8.3555 42.176 8.6115 40.864 9.1235 39.776C9.8915 38.24 10.9475 36.928 12.2915 35.84C14.5315 34.112 17.3795 32.768 20.8355 31.808C25.0595 30.528 30.0835 29.76 35.9075 29.504L38.3075 29.408V27.68L38.2115 25.184V25.088C37.8275 22.4 36.5155 20.512 34.2755 19.424C32.8675 18.72 31.0435 18.368 28.8035 18.368C26.1795 18.368 24.8035 18.432 24.6755 18.56L24.9635 19.136C25.4755 20.032 25.6995 21.184 25.6355 22.592C25.6355 23.616 25.5715 24.352 25.4435 24.8C25.0595 25.952 24.4835 26.912 23.7155 27.68C22.8835 28.512 21.8915 29.12 20.7395 29.504C20.2275 29.632 19.4915 29.696 18.5315 29.696C17.5715 29.696 16.8675 29.632 16.4195 29.504C15.2035 29.12 14.1795 28.512 13.3475 27.68C12.5795 26.912 12.0035 25.952 11.6195 24.8C11.4915 24.352 11.4275 23.616 11.4275 22.592C11.4275 21.568 11.4915 20.832 11.6195 20.384C12.5795 16.864 15.6835 14.528 20.9315 13.376C22.6595 12.992 24.6115 12.736 26.7875 12.608ZM38.3075 39.776C38.3075 36.448 38.2755 34.784 38.2115 34.784C38.1475 34.784 37.9875 34.816 37.7315 34.88C33.9555 35.136 30.6595 35.808 27.8435 36.896C24.8355 38.112 22.9475 39.808 22.1795 41.984C21.8595 42.88 21.8275 44.032 22.0835 45.44C22.7235 48 24.1955 49.664 26.4995 50.432C26.6275 50.496 26.7875 50.56 26.9795 50.624C29.3475 51.008 31.8435 50.528 34.4675 49.184C34.6595 49.12 34.8515 49.024 35.0435 48.896C36.2595 48.128 37.1235 47.264 37.6355 46.304C38.0195 45.536 38.2435 44.256 38.3075 42.464V39.776Z" fill="#137ABF"/>
</g>
<defs>
<clipPath id="clip0_1_2">
<rect width="64" height="64" fill="white"/>
</clipPath>
</defs>
</svg>
